# xmcd
#
# Track frame offsets: 
#        150
#        64456
#        95625
#        161858
#        206658
#        257680
#        282578
#
# Disc length: 4225 seconds
#
# Revision: 2
# Processed by: cddbd v1.5.2PL0 Copyright (c) Steve Scherf et al.
# Submitted via: ExactAudioCopy v0.99pb3
#
DISCID=70107f07
DTITLE=Esther and Jerry Hicks - Ask and it is Given Part II Disc 2
DYEAR=2005
DGENRE=Audiobook
TTITLE0=Process 4: Virtual reality
TTITLE1=Process 5: The Prosperity Game
TTITLE2=Process 6: The Process of Meditation
TTITLE3=Process 7: Evaluating Dreams 
TTITLE4=Process 8: The Book of Positive Aspects
TTITLE5=Process 9: Scripting
TTITLE6=Process 10: The Place Mat Process
EXTD=
EXTT0=
EXTT1=
EXTT2=
EXTT3=
EXTT4=
EXTT5=
EXTT6=
PLAYORDER=
